<svg version="1.1" id="Layer_1" xmlns="http://www.w3.org/2000/svg" xmlns:xlink="http://www.w3.org/1999/xlink" x="0px" y="0px"
	 width="792px" height="792px" viewBox="0 0 792 792" style="enable-background:new 0 0 792 792;" xml:space="preserve">
<style type="text/css">
	.st0{fill:#151413;}
	.st1{fill:#F6CD7D;}
	.st2{fill:#F89548;}
</style>
<g>
	<path class="st0" d="M704.93,317.42c20.23,53.8,26.72,108.73,18.52,165.22c-11.98,82.56-49.24,151.75-111.77,206.85
		C562.83,732.55,505.9,759.51,441.21,768c-111.16,14.59-206.3-18.82-283.53-100c-48.25-50.71-75.77-112.06-84.5-181.52
		C52.15,319.2,156.95,163.24,319.42,119.71c43.55-11.67,87.93-15.02,132.23-7.09c121.24,21.7,205.57,90.07,252.95,203.85
		C704.68,316.64,704.75,316.82,704.93,317.42z M289.28,706.04c-4.28,9.04-8.55,18.09-12.91,27.31c1.39,0.63,3.08,1.51,4.85,2.19
		c72.54,27.7,145.65,29.06,218.74,3.01c117.73-41.96,199.67-149,210.85-274.3c4.69-52.47-2.19-103.47-23.76-151.53
		c-46.82-104.3-126.46-167.08-239.96-185.62c-37.77-6.17-75.37-4.38-112.57,3.93c-191.4,42.75-300.45,251.24-226.37,432.55
		c2.56,6.25,5.47,12.36,9.09,20.51c5.93-8.09,10.8-14.75,16.36-21.74c1.03-1.38,2.05-2.76,3.09-4.13
		c47.48-62.71,94.93-125.44,142.52-188.07c2.52-3.31,2.49-5.53,0.3-8.92c-9.73-15.07-19.18-30.32-28.68-45.53
		c-1.2-1.93-2.94-4-3-6.05c-0.07-2.57,0.59-6.12,2.33-7.5c1.71-1.36,5.25-1.03,7.82-0.55c2.33,0.43,4.34,2.33,6.65,3.14
		c15.29,5.34,30.62,10.57,45.95,15.8c5.77,1.97,7.16,0.67,6.22-5.5c-2.54-16.59-5.24-33.16-7.36-49.81
		c-0.4-3.13,0.62-8.18,2.73-9.45c2.53-1.52,7.41-0.94,10.42,0.5c11.85,5.71,23.47,11.93,34.93,18.38c3.87,2.18,6.91,5.78,10.56,8.43
		c1.95,1.42,4.37,3.02,6.61,3.06c6.48,0.14,12.99-0.25,19.44-0.93c1.77-0.19,4.2-1.76,4.9-3.33c3.71-8.35,6.83-16.97,10.45-25.37
		c1.36-3.15,1.09-5.56-0.76-8.43c-4.96-7.7-9.64-15.58-14.35-23.43c-4.67-7.8-1.97-12.99,6.99-13.61c12.95-0.9,25.9-1.8,38.84-2.74
		c9.33-0.68,12.95,2.47,13.19,12.02c0.2,8.02-0.18,16.06,0.21,24.06c0.16,3.27,1.09,6.79,2.65,9.66
		c5.82,10.73,12.03,21.25,18.13,31.83c6.01,10.42,14.41,13.42,25.58,9.21c1.6-0.6,3.22-1.19,4.82-1.79
		c10.93-4.08,13.5-3.35,19.94,6.44c45.29,68.88,90.53,137.8,135.82,206.69c2.43,3.69,3.75,7.28,2.01,11.78
		c-2.67,6.93-4.67,14.11-7.42,21c-2.64,6.59-8.28,7.94-13.79,3.41c-3.38-2.77-6.59-5.87-9.34-9.27c-3.95-4.88-8.16-7.37-14.69-5.15
		c-3.54,1.2-7.63,0.72-11.28,1.68c-6.31,1.67-11.49-0.26-16.73-3.56c-14.85-9.36-29.81-18.55-44.84-27.63
		c-2.7-1.63-5.81-2.94-8.9-3.55c-44.32-8.74-88.68-17.29-132.99-26.06c-4.47-0.89-6.57-0.06-8.58,4.42
		c-28.7,64.02-57.68,127.91-86.52,191.87C301.41,678.71,295.68,692.2,289.28,706.04z M323.03,595.19
		c20.09-44.49,40.17-88.98,60.3-133.46c3.47-7.66,7.8-9.67,16.01-8.09c46.24,8.95,92.48,17.83,138.71,26.82
		c3.89,0.76,8.12,1.36,11.39,3.35c15.32,9.29,30.52,18.81,45.41,28.76c5.71,3.82,10.85,2.68,16.55,1.19
		c-0.25-0.76-0.27-1.21-0.5-1.46c-3.84-3.98-7.71-7.93-11.57-11.9c-4.93-5.06-5.85-9.53-2.66-12.95c3.22-3.45,7.82-2.65,12.9,2.37
		c4.61,4.57,9.12,9.25,13.7,13.84c6.97,6.98,13.97,13.93,21.01,20.95c4.06-6,3.78-10.76-0.25-16.82
		c-43.24-65.19-86.15-130.6-128.96-196.08c-2.74-4.19-4.97-4.97-9.56-3.24c-5.42,2.03-11.81,5.1-16.82,3.86
		c-10.58-2.62-20.88-6.92-26.6-17.92c-6.07-11.67-13.24-22.76-19.4-34.39c-2.12-4-3.35-8.8-3.71-13.33
		c-0.6-7.55-0.16-15.17-0.16-23.55c-9.04,0.65-17.44,1.25-26.91,1.92c3.28,5.4,5.75,10.1,8.81,14.38c5.9,8.27,8.97,15.61,1.78,25.66
		c-5.51,7.69-7.88,17.68-11.36,26.76c-2.26,5.92-5.81,8.97-12.51,8.34c-5.18-0.49-10.44-0.1-16.6-0.1c1.16,2.2,1.57,3.01,2.01,3.8
		c3,5.35,2.65,9.17-1.39,11.44c-4.79,2.7-8.34,0.57-11.28-3.39c-2.73-3.68-5.93-7.07-8.21-11.01c-8.31-14.35-23.5-18.5-37.08-26.27
		c0,1.73-0.12,2.65,0.02,3.54c2.05,13.58,4.02,27.17,6.28,40.71c1.02,6.13,1.21,11.43-6.04,13.96c-1.41,0.49-2.43,2.35-3.45,3.7
		c-45.97,60.71-91.92,121.42-137.87,182.14c-17.16,22.67-33.93,45.65-51.72,67.83c-4.52,5.64-4.48,9.57-1.44,14.94
		c2.72,4.81,4.98,9.91,8.01,14.52c15.39,23.37,33.8,43.87,55.51,61.77c16.29,13.44,33.27,25.47,51.9,35.21
		c5.98,3.13,12.33,5.54,18.76,8.39C285.16,679.02,303.9,637.49,323.03,595.19z M285.45,343.23c2.02,3.14,4.03,6.29,6.4,9.98
		c4.85-6.41,9.27-12.27,14.17-18.75c-11.06-3.77-21.4-7.29-33.14-11.28C277.54,330.6,281.28,336.56,285.45,343.23z"/>
	<path class="st0" d="M480.36,92.88c-1.68-4.48-3.31-8.51-4.88-12.56c-2.62-6.77-5.23-8.41-13.48-8.11
		c-0.84,5.7-1.88,11.46-2.49,17.26c-0.36,3.43,0.45,6.38,4.8,7.1c1.04,0.17,1.76,2.23,3.42,4.5c-11.32-1.87-20.82-3.38-30.3-5.09
		c-0.98-0.18-1.75-1.56-2.62-2.38c1.1-0.67,2.22-1.95,3.3-1.91c4.92,0.19,7.17-2.01,8.04-6.82c2.34-12.83,5.13-25.57,7.53-38.38
		c0.77-4.13,0.6-8.14-5.1-9c-0.75-0.11-1.66-2.01-1.66-3.08c0-0.61,1.8-1.89,2.58-1.74c11.32,2.13,22.74,3.96,33.83,6.98
		c4.57,1.25,9.39,4.38,12.39,8.05c7.8,9.55,4.02,20.1-7.74,23.73c-1.08,0.33-2.16,0.68-3.64,1.15c4.4,9.14,8.16,18.58,13.33,27.16
		c3.86,6.4,10.75,6.19,15.72,0.72c12.12-13.34,24.17-26.74,36.35-40.03c0.87-0.95,3.33-1.97,3.68-1.61
		c1.15,1.17,2.32,2.96,2.33,4.52c0.14,15.27,0.05,30.55,0.03,45.83c0,3.25-0.04,6.49,0.03,9.74c0.13,6.22,3.53,9.86,10.03,11.57
		c5.89,1.55,7.51-2.67,9.82-6.44c5.88-9.63,12.07-19.07,17.82-28.78c2.52-4.25,5.94-9.13-1.32-12.64c-0.38-0.18-0.58-0.95-0.66-1.48
		c-0.08-0.51,0.1-1.07,0.3-2.62c16.32,6.89,30.03,17.43,45.84,26.37c-2.66,4.66-5.19,9.11-8.66,15.18c-1.1-2.4-2.47-3.92-2.26-5.16
		c1.68-9.7,0.35-8.76-7.42-15.24c-2.55-2.13-5.94-3.26-9.61-5.2c-3.61,5.91-7.23,11.84-10.81,17.69c6.24,7.45,8.34,7.67,16.64,0.55
		c0,2.7,0.54,4.56-0.1,5.81c-2.21,4.35-4.73,8.57-7.37,12.67c-0.56,0.87-2.16,1.41-3.28,1.43c-0.56,0.01-1.82-1.82-1.6-2.33
		c3.34-8-2.65-9.75-7.8-12.27c-3.39,5.29-6.61,10.4-9.91,15.46c-2.44,3.74-2.37,6.91,1.43,9.87c1.2,0.94,1.61,2.89,2.39,4.37
		c-0.5,0.37-0.99,0.74-1.49,1.11c-7.55-4.5-14.97-9.23-22.69-13.43c-6.97-3.79-14.23-7.06-21.42-10.44
		c-2.89-1.36-6.01-2.25-8.86-3.69c-0.83-0.42-1.07-1.99-1.57-3.04c0.94-0.27,2.06-1.01,2.8-0.73c2.94,1.1,6.02,1.07,5.81-2.53
		c-0.21-3.66,3.59-8.87-3.2-11c-3.94-1.23-7.66-3.22-11.39-5.05c-6.13-3-7.49,2.99-10.02,5.73c-2.22,2.4-0.1,4.65,2.66,6.19
		c0.96,0.53,0.96,2.78,1.29,3.88c-11.77-3.3-23.08-5.7-33.67-9.91C484.18,103.47,482.75,97.29,480.36,92.88z M465.04,58.87
		c-0.51,2.34-1.02,4.68-1.58,7.26c7.03,1.47,13.99,4.03,18.81-2.48c2.71-3.66,5.69-8.32,2.46-13.62c-3.67-6.03-9-8.37-16.78-7.22
		C466.99,47.85,466.04,52.86,465.04,58.87z M542.22,82.43c0-1.41,0-2.81,0-5.63c-5.17,5.62-9.45,10.04-13.32,14.78
		c-0.5,0.61,0.68,3.8,1.77,4.29c3.54,1.62,7.4,2.54,11.55,3.86C542.23,94.04,542.23,88.76,542.22,82.43z"/>
	<path class="st0" d="M210.45,152c-3.91,2.54-7.51,4.79-11.82,7.5c-0.22-2.32-0.53-3.17-0.29-3.36c6.42-5.32,4.18-10.06-0.34-15.4
		c-6.86-8.1-13.18-16.67-20.88-24.49c0.98,4.8,1.85,9.64,2.98,14.41c2.79,11.78,5.74,23.53,8.47,35.33c0.23,1.01-0.29,2.69-1.07,3.3
		c-0.67,0.53-2.37,0.36-3.31-0.11c-12.45-6.31-24.85-12.73-37.26-19.12c-2.54-1.31-5.09-2.61-7.64-3.91
		c-0.31,0.37-0.63,0.73-0.94,1.1c2.3,3.24,4.51,6.54,6.91,9.7c4.78,6.28,9.64,12.49,14.51,18.7c2.52,3.21,5.57,4.29,9.55,2.57
		c1.29-0.56,2.93-0.33,4.57,0.26c-5.69,5.88-10.75,12.2-19.64,13.45c5.79-6.56,3.59-11.23-1.27-16.84
		c-7.76-8.96-14.28-18.99-21.83-28.15c-1.38-1.67-5.14-1.52-7.85-1.9c-1.65-0.23-3.39,0.11-5.09,0.2c0.95-1.58,1.61-3.49,2.92-4.68
		c2.93-2.68,6.34-4.82,9.26-7.52c4.89-4.51,9.19-1.94,13.78,0.51c11.28,6.01,22.65,11.85,35.32,18.45
		c-1.87-9.15-3.44-17.17-5.18-25.16c-1.36-6.29-3.19-12.48-4.25-18.81c-0.35-2.1,0.32-5.25,1.76-6.61
		c3.96-3.74,8.51-6.89,12.98-10.03c0.96-0.67,2.6-0.36,3.9-0.5c0.13,1.18,0.35,1.67,0.18,1.9c-5.28,7.43-5.42,7.53,1.8,17.21
		c6.76,9.06,13.65,18.07,21,26.64c1.47,1.72,5.3,1.61,8.09,1.92c1.58,0.18,3.26-0.51,4.89-0.81c0.35,0.67,0.7,1.34,1.05,2.02
		C220.75,143.72,215.75,147.72,210.45,152z"/>
	<path class="st0" d="M339.16,41.13c12.07-9.65,24.51-11.29,38.05-2.78c0.54-1.71,0.68-3.03,1.34-3.99
		c0.63-0.91,1.86-2.04,2.74-1.96c0.82,0.07,2.04,1.49,2.2,2.46c0.9,5.6,1.54,11.24,2.54,19.04c-2.88-1.88-5.07-2.55-5.98-4.01
		c-8.44-13.68-20.46-16.05-30.86-6.16c-3.19,3.03-5.25,8.71-5.34,13.23c-0.16,8.05,0.68,16.37,2.72,24.15
		c2.75,10.5,17.78,15.19,27.16,9.31c4.79-3.01,6.77-7.99,4.32-15.05c-0.87-2.51-4.92-3.91-8.24-6.35c0.15-0.16,0.95-1.9,1.97-2.04
		c8.26-1.11,16.56-1.92,26.31-2.97c-1.09,2.43-1.43,4.81-2.42,5.14c-4.74,1.53-3.73,5.14-3.51,8.44c0.3,4.5,0.81,8.99,1.17,12.83
		c-7.25,2.28-13.6,4.58-20.12,6.27c-12.87,3.34-25.27,3.61-35.34-7.16C325.11,75.87,323.94,55.39,339.16,41.13z"/>
	<path class="st0" d="M656.59,206.53c-2.36-2.77-4.68-5.08-6.49-7.73c-0.79-1.16-0.54-3.03-0.76-4.57c0.46-0.18,0.91-0.35,1.37-0.53
		c1.24,1.04,2.34,2.63,3.76,3c2.3,0.6,5.68,1.49,7.1,0.36c9.27-7.35,18.13-15.21,27.13-22.89c1.3-1.11,2.55-2.29,3.98-3.2
		c4.04-2.56,4.78-5.92,3-10.22c-0.46-1.09-0.19-2.49-0.26-3.74c1.2,0.46,2.76,0.58,3.55,1.43c3.3,3.55,6.37,7.3,9.51,11
		c6.49,7.65,12.83,15.42,19.51,22.9c2.37,2.66,2.42,4.3-0.34,6.49c-2.19,1.73-3.89,4.07-6.08,5.81c-0.99,0.78-2.62,0.76-3.95,1.1
		c-0.16-1.32-0.78-2.8-0.39-3.94c2.98-8.8-0.67-19.38-8.68-23.73c-1.06-0.57-3.31-0.01-4.44,0.81c-3.07,2.21-6.04,4.66-8.67,7.38
		c-1.68,1.74-6.18,2.1-3.98,6.19c2.91,5.42,7.22,7.33,11.77,5.96c1.45-0.43,3.18,0.08,6.38,0.24c-5.77,5.19-10.16,9.27-14.72,13.15
		c-0.81,0.69-2.44,0.89-3.51,0.61c-0.56-0.14-1.31-2.33-0.96-2.73c6.21-7.33-1.14-10.59-4.17-15.84
		c-5.54,4.58-10.74,8.57-15.48,13.04c-1.2,1.13-1.66,4-1.22,5.76c2.43,9.72,12.89,15.65,22.67,13.32c2.52-0.6,5.14-0.81,7.71-1.2
		c0.19,0.55,0.37,1.09,0.56,1.64c-5.25,4.39-10.5,8.79-16.02,13.4C674.97,228.47,665.91,217.66,656.59,206.53z"/>
	<path class="st0" d="M674.37,142.06c-3.45-3.26-6.59-6.29-10.03-8.9c-0.91-0.69-3.41-0.73-4.1-0.02
		c-3.84,3.95-7.49,8.11-10.85,12.47c-0.76,0.99-0.63,4.16-0.03,4.44c3.26,1.51,6.73,2.65,10.24,3.43c1.44,0.32,3.16-0.59,4.75-0.94
		c-0.58,1.81-0.7,3.99-1.81,5.36c-3.3,4.08-6.99,7.84-11.93,13.27c-0.66-7.93,2.7-16.41-7.18-18.42c-3.76,4.29-7.68,8.86-11.7,13.33
		c-3.78,4.21-3.39,7.15,1.77,14.1c-1.56-0.17-3.57,0.23-4.62-0.59c-6.48-5.06-12.8-10.32-19-15.71c-1.06-0.93-1.29-2.81-1.9-4.26
		c1.45-0.06,3.16-0.65,4.29-0.09c3.64,1.81,6.77,1.09,9.19-1.7c8.99-10.37,17.85-20.84,26.65-31.37c3.89-4.65,0.68-7.75-3.22-10.54
		c0.2-0.55,0.4-1.11,0.59-1.66c1.5,0.28,3.4,0.06,4.45,0.9c12.49,9.98,24.85,20.12,37.76,30.64c-2.88,3.74-5.35,7.19-8.12,10.38
		c-0.82,0.95-2.49,1.16-3.76,1.71c-0.2-1.36-0.5-2.71-0.6-4.08C674.95,150.03,674.77,146.24,674.37,142.06z"/>
	<path class="st0" d="M279.67,104.32c-2.33-3.88-4.46-5.79-8.75-2.63c-2.48,1.83-5.86,2.91-8.96,3.31c-6.9,0.88-5.57,5.84-5.09,9.92
		c0.6,5.13,4.34,4.86,8.34,3.2c0.4,0.41,0.79,0.82,1.19,1.24c-1.05,1.47-1.78,3.57-3.21,4.3c-4.19,2.12-8.62,3.82-13.05,5.41
		c-1.22,0.44-2.78-0.07-4.19-0.15c0.48-1.38,0.9-2.79,1.44-4.15c1.2-3.01,3.49-5.97,3.54-8.98c0.33-17.35,0.08-34.71,0.21-52.07
		c0.02-1.96,1.22-3.92,1.88-5.87c1.88,1.12,4.11,1.9,5.58,3.42c7.85,8.13,15.53,16.43,23.24,24.69c4.28,4.58,8.24,9.5,12.86,13.7
		c2.14,1.95,5.49,2.57,8.29,3.78c0.93,0.4,1.88,0.76,2.82,1.14c-0.56,1.02-0.87,2.62-1.71,2.98c-7.44,3.2-14.95,6.26-22.53,9.1
		c-0.94,0.35-2.45-0.85-3.7-1.33c0.57-0.99,0.9-2.53,1.75-2.9C285.27,109.99,283.29,107.38,279.67,104.32z M256.68,95.33
		c0,1.98,0,3.95,0,6.57c5.61-2.09,10.3-3.83,15.9-5.91c-5.39-5.66-10.26-10.76-15.92-16.7C256.66,85.18,256.66,89.73,256.68,95.33z"
		/>
	<path class="st0" d="M426.88,38.54c-0.79,3.93-1.48,7.48-1.69,11.07c-0.6,10.47-1.06,20.94-1.46,31.42
		c-0.35,9.17,0.19,9.77,10.73,11.59c-2.29,1.73-3.51,3.46-4.71,3.43c-8.95-0.17-17.9-0.62-26.83-1.17c-0.96-0.06-1.84-1.3-2.75-2
		c1.02-0.75,2.06-2.16,3.07-2.15c4.38,0.07,6.31-2.18,6.51-6.21c0.69-14.27,1.32-28.55,1.94-42.82c0.18-4.06-2.59-4.9-5.84-5.62
		c-1.24-0.27-2.18-1.9-3.26-2.92c1.29-0.67,2.59-1.94,3.86-1.91c8.01,0.15,16.01,0.49,24,1.04c1.48,0.1,2.87,1.46,4.3,2.24
		c-1.23,0.89-2.39,1.94-3.73,2.6C429.87,37.71,428.49,37.85,426.88,38.54z"/>
	<path class="st0" d="M77.29,199.69c-2.28,1.82-4.17,3.45-6.51,5.46c-2.51-6.85,3.31-8.4,5.29-11.82c2.43-4.2,5.72-7.94,8.91-11.64
		c1.33-1.54,3.37-2.48,5.08-3.69c-0.11,1.83-0.51,3.69-0.27,5.47c0.36,2.61,0.33,6.19,1.96,7.54c9.33,7.68,19.12,14.81,28.72,22.15
		c1.03,0.79,1.93,1.74,2.84,2.66c3.02,3.04,6.06,3.37,9.5,0.51c1.18-0.98,2.93-1.27,4.42-1.87c0.26,0.51,0.52,1.01,0.78,1.52
		c-5.32,7.4-10.56,14.86-16.03,22.14c-0.83,1.11-2.77,1.38-4.19,2.04c0-1.42-0.32-2.93,0.05-4.25c1.32-4.73,0.39-7.85-4.09-10.98
		c-10.3-7.19-19.95-15.32-29.99-22.9C82.07,200.74,79.72,200.32,77.29,199.69z"/>
	<path class="st0" d="M117.68,179.27c0.13-2.3,0.47-4.34-0.15-6.04c-1.15-3.14-3.15-5.07-6.14-1.53c-2.96,3.51-6.59,4.37-9.92,1.28
		c-1.74-1.62-3.33-4.98-2.86-7.08c0.92-4.1,4.16-6.61,8.86-6.48c5.33,0.15,12.16,5.49,14.45,11.48c2.19,5.73,0.61,12.67-5.27,16.43
		C116.9,184.78,117.18,182.23,117.68,179.27z"/>
	<path class="st1" d="M289.82,705.62c5.86-13.42,11.59-26.91,17.61-40.26c28.84-63.96,57.82-127.85,86.52-191.87
		c2.01-4.48,4.1-5.31,8.58-4.42c44.31,8.77,88.67,17.31,132.99,26.06c3.09,0.61,6.19,1.92,8.9,3.55
		c15.02,9.08,29.99,18.27,44.84,27.63c5.25,3.31,10.42,5.23,16.73,3.56c3.66-0.97,7.74-0.48,11.28-1.68
		c6.53-2.22,10.74,0.27,14.69,5.15c2.75,3.39,5.96,6.49,9.34,9.27c5.52,4.53,11.15,3.18,13.79-3.41c2.76-6.89,4.76-14.07,7.42-21
		c1.73-4.5,0.41-8.08-2.01-11.78c-45.29-68.89-90.53-137.8-135.82-206.69c-6.44-9.79-9.01-10.52-19.94-6.44
		c-1.61,0.6-3.22,1.18-4.82,1.79c-11.17,4.21-19.57,1.21-25.58-9.21c-6.1-10.58-12.31-21.1-18.13-31.83
		c-1.56-2.87-2.49-6.39-2.65-9.66c-0.39-8-0.01-16.04-0.21-24.06c-0.24-9.55-3.86-12.69-13.19-12.02
		c-12.95,0.94-25.9,1.83-38.84,2.74c-8.96,0.62-11.66,5.81-6.99,13.61c4.71,7.86,9.39,15.74,14.35,23.43
		c1.85,2.87,2.12,5.28,0.76,8.43c-3.61,8.4-6.74,17.01-10.45,25.37c-0.7,1.57-3.12,3.14-4.9,3.33c-6.45,0.68-12.96,1.06-19.44,0.93
		c-2.24-0.05-4.65-1.65-6.61-3.06c-3.65-2.64-6.69-6.25-10.56-8.43c-11.46-6.45-23.08-12.67-34.93-18.38
		c-3.01-1.45-7.89-2.02-10.42-0.5c-2.11,1.26-3.13,6.31-2.73,9.45c2.12,16.65,4.82,33.22,7.36,49.81c0.94,6.17-0.45,7.47-6.22,5.5
		c-15.33-5.23-30.66-10.46-45.95-15.8c-2.31-0.81-4.32-2.7-6.65-3.14c-2.57-0.48-6.11-0.81-7.82,0.55c-1.74,1.38-2.39,4.93-2.33,7.5
		c0.06,2.05,1.79,4.12,3,6.05c9.5,15.21,18.95,30.46,28.68,45.53c2.19,3.39,2.22,5.61-0.3,8.92
		c-47.59,62.63-95.04,125.36-142.52,188.07c-1.04,1.37-2.06,2.75-3.64,3.95c-1.58-2.39-2.82-4.53-3.6-6.82
		c-5.54-16.32-11.4-32.55-16.35-49.05c-5.91-19.72-8.36-40.05-8.87-60.62c-0.61-24.44,0.36-48.77,6.89-72.44
		c4.55-16.5,9.14-33.13,15.67-48.9c6.53-15.78,14.92-30.89,23.54-45.68c11.18-19.18,25.75-35.9,41.52-51.44
		c7.76-7.65,16.39-14.46,24.89-21.33c22.51-18.21,47.53-32.18,74.66-42.1c12.77-4.67,25.93-8.42,39.15-11.64
		c11.74-2.87,23.74-5.58,35.74-6.3c18.02-1.08,36.17-0.99,54.22-0.19c12.78,0.56,25.87,1.68,38.11,5.11
		c19.91,5.59,39.59,12.39,58.7,20.3c22.21,9.19,42.47,22.21,61.16,37.34c18.45,14.94,34.92,31.81,49.26,50.92
		c13.3,17.72,24.73,36.38,33.74,56.55c8.19,18.32,14.75,37.13,18.77,56.94c3.16,15.59,6.33,31.09,6.43,47.03
		c0.15,23.4,1.43,46.88-4.49,69.91c-3.52,13.69-5.81,27.78-10.38,41.09c-7.48,21.82-17.66,42.49-30.15,62
		c-12.89,20.14-28.05,38.31-45.32,54.85c-16.63,15.92-34.92,29.56-54.82,40.97c-24.09,13.8-49.42,24.8-76.75,30.33
		c-16.69,3.38-33.48,7.22-50.39,8.36c-39.15,2.66-77.47-2.87-114.57-15.92C296.23,710.19,293.13,707.6,289.82,705.62z"/>
	<path class="st2" d="M322.83,595.58c-18.93,41.91-37.67,83.45-56.78,125.83c-6.43-2.85-12.78-5.26-18.76-8.39
		c-18.64-9.74-35.62-21.78-51.9-35.21c-21.71-17.91-40.12-38.4-55.51-61.77c-3.03-4.6-5.29-9.7-8.01-14.52
		c-3.03-5.36-3.08-9.3,1.44-14.94c17.78-22.17,34.56-45.15,51.72-67.83c45.95-60.72,91.9-121.44,137.87-182.14
		c1.03-1.36,2.04-3.21,3.45-3.7c7.26-2.53,7.07-7.83,6.04-13.96c-2.26-13.54-4.22-27.14-6.28-40.71c-0.13-0.88-0.02-1.81-0.02-3.54
		c13.58,7.76,28.77,11.92,37.08,26.27c2.28,3.93,5.48,7.33,8.21,11.01c2.93,3.96,6.49,6.09,11.28,3.39
		c4.04-2.27,4.39-6.09,1.39-11.44c-0.44-0.79-0.85-1.61-2.01-3.8c6.17,0,11.43-0.39,16.6,0.1c6.7,0.63,10.25-2.42,12.51-8.34
		c3.48-9.08,5.85-19.07,11.36-26.76c7.19-10.05,4.11-17.4-1.78-25.66c-3.05-4.28-5.53-8.98-8.81-14.38
		c9.47-0.68,17.87-1.28,26.91-1.92c0,8.37-0.43,16,0.16,23.55c0.36,4.54,1.59,9.33,3.71,13.33c6.16,11.63,13.33,22.72,19.4,34.39
		c5.72,11,16.01,15.3,26.6,17.92c5.01,1.24,11.4-1.82,16.82-3.86c4.59-1.72,6.82-0.94,9.56,3.24
		c42.81,65.47,85.72,130.88,128.96,196.08c4.02,6.06,4.3,10.83,0.25,16.82c-7.04-7.02-14.04-13.97-21.01-20.95
		c-4.59-4.59-9.09-9.27-13.7-13.84c-5.07-5.02-9.68-5.81-12.9-2.37c-3.19,3.42-2.28,7.88,2.66,12.95c3.86,3.96,7.73,7.92,11.57,11.9
		c0.24,0.24,0.25,0.7,0.5,1.46c-5.7,1.48-10.84,2.62-16.55-1.19c-14.89-9.95-30.1-19.47-45.41-28.76
		c-3.27-1.99-7.51-2.59-11.39-3.35c-46.23-8.99-92.48-17.87-138.71-26.82c-8.21-1.59-12.54,0.42-16.01,8.09
		C363.2,506.21,343.12,550.7,322.83,595.58z M195.88,592.9c-0.37-14.98-8.85-24.95-18.69-27.82c-17.55-5.11-33.28,4.65-38.02,23.14
		c-2.96,11.51,2.78,25.39,12.86,31.1c11.17,6.33,24.53,4.55,33.58-4.24C191.63,609.21,194.42,601.92,195.88,592.9z M234.28,639.3
		c-10.59,6.9-13.4,17.35-11.75,28.87c2.14,14.96,16.46,25.93,31.51,21.78c12.64-3.49,20.26-14.53,19.86-30.16
		c-0.25-9.77-5.41-16.95-13.53-21.72C251.96,633.15,243.3,633.73,234.28,639.3z M284.04,472.77c10.91-8.85,11.64-23.54,3.81-32.23
		c-5.86-6.51-13.15-9.25-21.97-8.49c-9.39,0.81-17.85,7.5-21.15,17.3c-2.45,7.26,0.98,17.55,8.12,22.87
		C262.68,479.54,272.96,479.08,284.04,472.77z M292.22,613.24c0.1-11.91-4.91-19.1-15.5-22.2c-10.08-2.95-20.82,3.26-23.51,13.43
		c-3.43,12.97,4.43,22.18,14.06,24.64C278.69,632.03,288.34,626.48,292.22,613.24z M300.24,396.71c-7.36-2.53-14.23-1.96-20.36,3.23
		c-5.96,5.04-7.56,11.58-4.49,17.14c3.63,6.55,9.47,8.54,16.37,8.07c7.3-0.5,13.48-5.88,15.75-12.98
		C309.74,405.21,305.68,401.05,300.24,396.71z M286.24,566.96c-2.31,9.44,2.7,17.53,12.3,18.42c5.26,0.49,10.46-1.05,13.57-6.36
		c2.68-4.57,2.7-8.86-0.21-13.32C305.49,555.87,294.55,556.03,286.24,566.96z M199.48,550.73c-0.39-8.07-6.62-14.21-14.16-13.93
		c-6.98,0.26-12.06,5.1-12.27,11.68c-0.28,8.4,5.12,14.58,13.39,15.36C193.04,564.46,198.61,559.27,199.48,550.73z M301.97,374.82
		c-4.33,6.36-3.67,13.12,1.59,16.5c5.09,3.27,11.13,2.43,14.93-2.07c3.44-4.08,3.39-10.08-0.13-14.11
		C314.23,370.39,308.71,370.06,301.97,374.82z M504.52,351.59c1.3-3.52,4.3-7.56,3.41-10.41c-0.9-2.9-5.32-5.61-8.72-6.63
		c-5.76-1.72-12.44,3.15-13.26,8.56c-0.83,5.47,2.35,9.06,9.69,10.01C498.25,353.46,501.05,352.42,504.52,351.59z M359.36,493.02
		c-3.14-4.48-8.12-5.19-9.47-1.13c-0.69,2.08-0.2,5.24,1.03,7.04c0.89,1.29,4.75,2.21,5.74,1.4
		C358.33,498.97,358.75,496.11,359.36,493.02z M360.86,485.94c3.3,0.38,6.32-0.19,6.83-3.99c0.19-1.4-1.2-4.22-2.11-4.33
		c-2.13-0.24-5.48,0.09-6.33,1.45C358.32,480.55,359.64,483.45,360.86,485.94z"/>
	<path class="st2" d="M285.24,342.87c-3.95-6.32-7.7-12.27-12.36-19.69c11.74,4,22.08,7.52,33.14,11.28
		c-4.89,6.48-9.32,12.34-14.17,18.75C289.48,349.52,287.46,346.38,285.24,342.87z"/>
	<path class="st1" d="M195.81,593.38c-1.39,8.54-4.18,15.83-10.21,21.69c-9.04,8.79-22.4,10.57-33.58,4.24
		c-10.08-5.71-15.81-19.59-12.86-31.1c4.75-18.49,20.47-28.25,38.02-23.14C187.03,567.95,195.51,577.91,195.81,593.38z"/>
	<path class="st1" d="M234.64,639.06c8.67-5.33,17.33-5.91,25.72-0.99c8.12,4.76,13.28,11.95,13.53,21.72
		c0.4,15.63-7.21,26.67-19.86,30.16c-15.05,4.15-29.37-6.82-31.51-21.78C220.89,656.65,223.69,646.2,234.64,639.06z"/>
	<path class="st1" d="M283.68,472.99c-10.72,6.09-21,6.55-30.83-0.78c-7.13-5.32-10.57-15.61-8.12-22.87
		c3.3-9.8,11.76-16.49,21.15-17.3c8.81-0.76,16.1,1.98,21.97,8.49C295.68,449.23,294.95,463.92,283.68,472.99z"/>
	<path class="st1" d="M292.16,613.71c-3.83,12.78-13.47,18.32-24.9,15.41c-9.62-2.46-17.49-11.68-14.06-24.64
		c2.69-10.17,13.43-16.38,23.51-13.43C287.31,594.14,292.32,601.33,292.16,613.71z"/>
	<path class="st1" d="M300.65,396.89c5.03,4.16,9.09,8.32,6.86,15.28c-2.27,7.1-8.45,12.49-15.75,12.98
		c-6.9,0.47-12.75-1.52-16.37-8.07c-3.07-5.55-1.47-12.09,4.49-17.14C286,394.76,292.87,394.18,300.65,396.89z"/>
	<path class="st1" d="M286.42,566.55c8.13-10.53,19.07-10.69,25.47-0.86c2.91,4.46,2.88,8.75,0.21,13.32
		c-3.11,5.31-8.31,6.85-13.57,6.36C288.94,584.49,283.93,576.4,286.42,566.55z"/>
	<path class="st1" d="M199.48,551.21c-0.87,8.06-6.44,13.25-13.04,12.63c-8.27-0.77-13.67-6.96-13.39-15.36
		c0.22-6.58,5.3-11.42,12.27-11.68C192.86,536.51,199.1,542.65,199.48,551.21z"/>
	<path class="st1" d="M302.3,374.51c6.41-4.45,11.93-4.12,16.06,0.63c3.52,4.04,3.57,10.03,0.13,14.11
		c-3.8,4.5-9.84,5.34-14.93,2.07C298.3,387.94,297.65,381.18,302.3,374.51z"/>
	<path class="st0" d="M504.14,351.8c-3.09,0.62-5.89,1.66-8.5,1.32c-7.34-0.95-10.52-4.54-9.69-10.01
		c0.82-5.41,7.5-10.28,13.26-8.56c3.41,1.02,7.82,3.73,8.72,6.63C508.81,344.03,505.82,348.07,504.14,351.8z"/>
	<path class="st1" d="M359.53,493.45c-0.78,2.66-1.2,5.52-2.86,6.87c-1,0.81-4.86-0.1-5.74-1.4c-1.23-1.8-1.72-4.96-1.03-7.04
		C351.24,487.83,356.22,488.53,359.53,493.45z"/>
	<path class="st1" d="M360.42,485.84c-0.78-2.38-2.1-5.29-1.17-6.77c0.85-1.36,4.2-1.69,6.33-1.45c0.9,0.1,2.29,2.92,2.11,4.33
		C367.18,485.75,364.16,486.32,360.42,485.84z"/>
</g>
</svg>